<svg width="39" height="58" viewBox="0 0 39 58" fill="none" xmlns="http://www.w3.org/2000/svg">
<path d="M7.97657 23.4927L9.31085 37.8779L3.16237 45.6921L1.54834 33.6161L7.97657 23.4927Z" fill="white"/>
<path d="M30.6104 23.4927L29.2744 37.8779L35.4229 45.6921L37.0386 33.6161L30.6104 23.4927Z" fill="white"/>
<path d="M26.8334 7.65322C24.7555 3.34451 21.4789 0.76001 19.2933 0.76001C17.1078 0.76001 13.8311 3.34628 11.7532 7.65322H26.8334Z" fill="white"/>
<path d="M27.6691 9.67505H10.9176C10.1792 11.7973 9.73969 14.2278 9.80051 16.8972C9.97942 24.5487 11.8072 38.0562 11.8072 38.0562L25.4436 38.0544L26.7779 38.0562C26.7779 38.0562 28.6073 24.5468 28.7828 16.8972C28.847 14.2278 28.4075 11.7956 27.6691 9.67505ZM19.2934 26.3557C16.6717 26.3557 14.5469 24.2403 14.5469 21.6281C14.5469 19.0159 16.6734 16.9005 19.2934 16.9005C21.9133 16.9005 24.0381 19.0159 24.0363 21.6281C24.0381 24.2404 21.9133 26.3557 19.2934 26.3557Z" fill="white"/>
<path d="M38.5866 57.4842C37.9073 55.535 36.0449 54.1363 33.8576 54.1363C33.1574 54.1363 32.4903 54.2782 31.8822 54.5379C31.6737 52.2581 29.7487 50.4733 27.4068 50.4733C27.068 50.4733 26.7396 50.5096 26.4234 50.5806C26.4269 50.5182 26.4269 50.456 26.4269 50.3936C26.4269 48.6729 25.0265 47.2777 23.2996 47.2777C22.8514 47.2777 22.424 47.3712 22.0383 47.5408C20.956 45.6331 20.6414 40.6545 20.6414 40.6545H17.8061C17.8061 40.6545 17.4429 46.1213 16.159 47.9321C15.8601 47.8109 15.5301 47.7451 15.1861 47.7451C13.7389 47.7451 12.5661 48.9136 12.5661 50.3556C12.5661 50.4646 12.5731 50.572 12.587 50.6776C12.1735 50.5443 12.2222 50.4733 11.7636 50.4733C9.93071 50.4733 8.36883 51.6261 7.76762 53.243C7.09526 52.9643 6.35862 52.8103 5.58552 52.8103C2.78842 52.8103 0.463774 54.8287 0 57.4842H38.5866Z" fill="white"/>
</svg>
