<svg width="1102" height="784" viewBox="0 0 1102 784" fill="none" xmlns="http://www.w3.org/2000/svg">
<ellipse cx="843.344" cy="557.379" rx="5.26483" ry="4.38736" transform="rotate(24.3498 843.344 557.379)" fill="white"/>
<ellipse cx="938.481" cy="559.982" rx="5.26483" ry="4.38736" transform="rotate(24.3498 938.481 559.982)" fill="white"/>
<ellipse cx="862.646" cy="548.778" rx="3.50989" ry="2.63241" transform="rotate(24.3498 862.646 548.778)" fill="white"/>
<circle cx="855.942" cy="578.49" r="2.63241" transform="rotate(24.3498 855.942 578.49)" fill="white"/>
<circle cx="880.8" cy="591.666" r="2.63241" transform="rotate(24.3498 880.8 591.666)" fill="white"/>
<circle cx="906.23" cy="599.322" r="2.63241" transform="rotate(24.3498 906.23 599.322)" fill="white"/>
<circle cx="922.754" cy="579.833" r="2.63241" transform="rotate(24.3498 922.754 579.833)" fill="white"/>
<circle cx="918.35" cy="549.394" r="2.90556" transform="rotate(-133.396 918.35 549.394)" fill="white"/>
<circle cx="897.248" cy="532.36" r="2.90556" transform="rotate(-133.396 897.248 532.36)" fill="white"/>
<circle cx="876.755" cy="539.054" r="2.90556" transform="rotate(-133.396 876.755 539.054)" fill="white"/>
<ellipse cx="956.623" cy="551.819" rx="2.63241" ry="1.75494" transform="rotate(24.3498 956.623 551.819)" fill="white"/>
<ellipse cx="972.441" cy="544.531" rx="3.50989" ry="2.63241" transform="rotate(24.3498 972.441 544.531)" fill="white"/>
<circle cx="991.401" cy="547.332" r="2.63241" transform="rotate(24.3498 991.401 547.332)" fill="white"/>
<circle cx="1004.56" cy="492.877" r="2.90556" transform="rotate(3.37628 1004.56 492.877)" fill="white"/>
<circle cx="1019.43" cy="504.177" r="5.44792" transform="rotate(3.37628 1019.43 504.177)" fill="white"/>
<circle cx="984.892" cy="487.901" r="2.90556" transform="rotate(-117.488 984.892 487.901)" fill="white"/>
<circle cx="963.217" cy="484.922" r="2.90556" transform="rotate(-117.488 963.217 484.922)" fill="white"/>
<circle cx="959.045" cy="502.344" r="2.90556" transform="rotate(-117.488 959.045 502.344)" fill="white"/>
<circle cx="959.292" cy="516.568" r="2.90556" transform="rotate(-117.488 959.292 516.568)" fill="white"/>
<circle cx="955.121" cy="533.99" r="2.90556" transform="rotate(-117.488 955.121 533.99)" fill="white"/>
<circle cx="933.74" cy="505.746" r="2.90556" transform="rotate(-117.488 933.74 505.746)" fill="white"/>
<circle cx="912.704" cy="517.764" r="2.90556" transform="rotate(-117.488 912.704 517.764)" fill="white"/>
<circle cx="1021.31" cy="527.936" r="2.17917" transform="rotate(3.37628 1021.31 527.936)" fill="white"/>
<circle cx="1012" cy="549.944" r="2.90556" transform="rotate(3.37628 1012 549.944)" fill="white"/>
<ellipse cx="43.6333" cy="760.367" rx="3.02785" ry="3.63342" fill="white"/>
<circle cx="57.5612" cy="743.411" r="3.63342" fill="white"/>
<circle cx="81.1782" cy="736.75" r="3.02785" fill="white"/>
<circle cx="68.2946" cy="668.154" r="3.62197" transform="rotate(-20.9735 68.2946 668.154)" fill="white"/>
<circle cx="90.9908" cy="673.343" r="6.79119" transform="rotate(-20.9735 90.9908 673.343)" fill="white"/>
<circle cx="43.3989" cy="672.614" r="3.62197" transform="rotate(-141.838 43.3989 672.614)" fill="white"/>
<circle cx="21.4683" cy="702.3" r="3.62197" transform="rotate(-141.838 21.4683 702.3)" fill="white"/>
<circle cx="29.0591" cy="718.326" r="3.62197" transform="rotate(-141.838 29.0591 718.326)" fill="white"/>
<circle cx="33.2769" cy="740.257" r="3.62197" transform="rotate(-141.838 33.2769 740.257)" fill="white"/>
<circle cx="105.328" cy="699.363" r="2.71648" transform="rotate(-20.9735 105.328 699.363)" fill="white"/>
<circle cx="106.075" cy="729.139" r="3.62197" transform="rotate(-20.9735 106.075 729.139)" fill="white"/>
<circle cx="985.508" cy="317.055" r="5.99464" transform="rotate(-65.4204 985.508 317.055)" fill="white"/>
<circle cx="989.153" cy="196.01" r="5.99464" transform="rotate(-65.4204 989.153 196.01)" fill="white"/>
<circle cx="1092.53" cy="254.59" r="5.99464" transform="rotate(-65.4204 1092.53 254.59)" fill="white"/>
<circle cx="974.958" cy="292.452" r="3.68901" transform="rotate(-65.4204 974.958 292.452)" fill="white"/>
<circle cx="1012.43" cy="301.674" r="3.68901" transform="rotate(-65.4204 1012.43 301.674)" fill="white"/>
<circle cx="1029.07" cy="269.733" r="3.68901" transform="rotate(-65.4204 1029.07 269.733)" fill="white"/>
<circle cx="1074.24" cy="279.462" r="3.68901" transform="rotate(-65.4204 1074.24 279.462)" fill="white"/>
<circle cx="1039.07" cy="236.784" r="3.68901" transform="rotate(-65.4204 1039.07 236.784)" fill="white"/>
<circle cx="1014.39" cy="215.355" r="3.68901" transform="rotate(-65.4204 1014.39 215.355)" fill="white"/>
<circle cx="975.781" cy="221.037" r="3.68901" transform="rotate(136.834 975.781 221.037)" fill="white"/>
<circle cx="954.046" cy="247.745" r="3.68901" transform="rotate(136.834 954.046 247.745)" fill="white"/>
<circle cx="925.75" cy="205.922" r="3.68901" transform="rotate(136.834 925.75 205.922)" fill="white"/>
<circle cx="964.231" cy="183.168" r="3.68901" transform="rotate(136.834 964.231 183.168)" fill="white"/>
<circle cx="962.442" cy="273.796" r="3.68901" transform="rotate(136.834 962.442 273.796)" fill="white"/>
<circle cx="979.196" cy="173.617" r="3.22788" transform="rotate(-65.4204 979.196 173.617)" fill="white"/>
<circle cx="1085.16" cy="231.45" r="3.22788" transform="rotate(-65.4204 1085.16 231.45)" fill="white"/>
<circle cx="970.009" cy="152.682" r="3.68901" transform="rotate(-65.4204 970.009 152.682)" fill="white"/>
<circle cx="973.503" cy="128.419" r="3.22788" transform="rotate(-65.4204 973.503 128.419)" fill="white"/>
<circle cx="891.065" cy="101.344" r="3.68901" transform="rotate(-86.3939 891.065 101.344)" fill="white"/>
<circle cx="917.549" cy="74.1346" r="3.68901" transform="rotate(-86.3939 917.549 74.1346)" fill="white"/>
<circle cx="919.758" cy="117.256" r="3.68901" transform="rotate(-86.3939 919.758 117.256)" fill="white"/>
<circle cx="949.787" cy="66.9479" r="3.68901" transform="rotate(-86.3939 949.787 66.9479)" fill="white"/>
<circle cx="918.885" cy="92.4705" r="6.91689" transform="rotate(-86.3939 918.885 92.4705)" fill="white"/>
<circle cx="1060.03" cy="232.981" r="6.91689" transform="rotate(-86.3939 1060.03 232.981)" fill="white"/>
<circle cx="1046.48" cy="295.213" r="6.91689" transform="rotate(-86.3939 1046.48 295.213)" fill="white"/>
<circle cx="949.061" cy="90.2141" r="2.76676" transform="rotate(-86.3939 949.061 90.2141)" fill="white"/>
<circle cx="976.955" cy="102.137" r="3.68901" transform="rotate(-86.3939 976.955 102.137)" fill="white"/>
<circle cx="147.104" cy="357.113" r="4.66628" fill="white"/>
<circle cx="181.746" cy="320.584" r="4.66628" fill="white"/>
<circle cx="146.444" cy="314.448" r="2.87156" fill="white"/>
<circle cx="160.068" cy="366.671" r="2.87156" fill="white"/>
<circle cx="174.827" cy="366.671" r="2.87156" fill="white"/>
<circle cx="189.585" cy="356.453" r="2.87156" fill="white"/>
<circle cx="189.585" cy="341.695" r="2.87156" fill="white"/>
<circle cx="197.173" cy="306.142" r="2.51261" fill="white"/>
<circle cx="214.561" cy="308.772" r="2.87156" fill="white"/>
<circle cx="147.221" cy="339.065" r="2.51261" fill="white"/>
<circle cx="165.744" cy="320.125" r="2.87156" fill="white"/>
<circle cx="151.227" cy="326.043" r="5.38417" fill="white"/>
<circle cx="147.996" cy="304.648" r="2.15367" fill="white"/>
<circle cx="155.527" cy="298.555" r="2.87156" fill="white"/>
<circle cx="847.903" cy="464.236" r="5.5671" transform="rotate(-65.4204 847.903 464.236)" fill="white"/>
<circle cx="1075.06" cy="377.043" r="5.5671" fill="white"/>
<circle cx="259.698" cy="657.873" r="5.5671" fill="white"/>
<circle cx="161.567" cy="289.283" r="5.5671" fill="white"/>
<circle cx="930.912" cy="334.213" r="3.42591" fill="white"/>
<circle cx="877.459" cy="429.153" r="3.42591" fill="white"/>
<circle cx="178.573" cy="72.5297" r="3.42591" fill="white"/>
<circle cx="159.426" cy="79.71" r="3.42591" fill="white"/>
<circle cx="132.301" cy="58.1691" r="3.42591" fill="white"/>
<circle cx="27.6129" cy="390.683" r="3.59016" transform="rotate(-62.3123 27.6129 390.683)" fill="white"/>
<circle cx="710.766" cy="432.627" r="3.58742" transform="rotate(46.1952 710.766 432.627)" fill="white"/>
<circle cx="361.118" cy="313.315" r="2.31349" transform="rotate(46.1952 361.118 313.315)" fill="white"/>
<circle cx="519.67" cy="294.752" r="3.85581" transform="rotate(46.1952 519.67 294.752)" fill="white"/>
<circle cx="688.13" cy="128.928" r="3.85581" transform="rotate(-16.1171 688.13 128.928)" fill="white"/>
<circle cx="98.8323" cy="598.33" r="3.59016" transform="rotate(49.4871 98.8323 598.33)" fill="white"/>
<circle cx="19.5561" cy="572.507" r="5.98361" transform="rotate(-12.8252 19.5561 572.507)" fill="white"/>
<circle cx="87.8437" cy="44.413" r="5.5671" transform="rotate(-99.6802 87.8437 44.413)" fill="white"/>
<circle cx="53.617" cy="59.5408" r="3.59016" transform="rotate(-99.6802 53.617 59.5408)" fill="white"/>
<circle cx="20.2106" cy="138.889" r="5.98361" transform="rotate(-99.6802 20.2106 138.889)" fill="white"/>
<circle cx="21.1397" cy="86.4261" r="5.98361" transform="rotate(-161.992 21.1397 86.4261)" fill="white"/>
</svg>
