<svg width="1440" height="1024" viewBox="0 0 1440 1024" fill="none" xmlns="http://www.w3.org/2000/svg">
<g clip-path="url(#clip0_4_9538)">
<ellipse cx="1066.53" cy="727.016" rx="6.59907" ry="5.49922" transform="rotate(24.3498 1066.53 727.016)" fill="white"/>
<ellipse cx="1185.78" cy="730.279" rx="6.59907" ry="5.49922" transform="rotate(24.3498 1185.78 730.279)" fill="white"/>
<ellipse cx="1090.73" cy="716.235" rx="4.39938" ry="3.29953" transform="rotate(24.3498 1090.73 716.235)" fill="white"/>
<circle cx="1082.33" cy="753.478" r="3.29953" transform="rotate(24.3498 1082.33 753.478)" fill="white"/>
<circle cx="1113.48" cy="769.993" r="3.29953" transform="rotate(24.3498 1113.48 769.993)" fill="white"/>
<circle cx="1145.36" cy="779.589" r="3.29953" transform="rotate(24.3498 1145.36 779.589)" fill="white"/>
<circle cx="1166.07" cy="755.161" r="3.29953" transform="rotate(24.3498 1166.07 755.161)" fill="white"/>
<circle cx="1160.55" cy="717.008" r="3.6419" transform="rotate(-133.396 1160.55 717.008)" fill="white"/>
<circle cx="1134.1" cy="695.657" r="3.6419" transform="rotate(-133.396 1134.1 695.657)" fill="white"/>
<circle cx="1108.41" cy="704.048" r="3.6419" transform="rotate(-133.396 1108.41 704.048)" fill="white"/>
<ellipse cx="1208.52" cy="720.047" rx="3.29953" ry="2.19969" transform="rotate(24.3498 1208.52 720.047)" fill="white"/>
<ellipse cx="1228.35" cy="710.912" rx="4.39938" ry="3.29953" transform="rotate(24.3498 1228.35 710.912)" fill="white"/>
<circle cx="1252.11" cy="714.423" r="3.29953" transform="rotate(24.3498 1252.11 714.423)" fill="white"/>
<circle cx="1268.61" cy="646.169" r="3.6419" transform="rotate(3.37628 1268.61 646.169)" fill="white"/>
<circle cx="1287.25" cy="660.331" r="6.82856" transform="rotate(3.37628 1287.25 660.331)" fill="white"/>
<circle cx="1243.95" cy="639.932" r="3.6419" transform="rotate(-117.488 1243.95 639.932)" fill="white"/>
<circle cx="1216.79" cy="636.197" r="3.6419" transform="rotate(-117.488 1216.79 636.197)" fill="white"/>
<circle cx="1211.56" cy="658.034" r="3.6419" transform="rotate(-117.488 1211.56 658.034)" fill="white"/>
<circle cx="1211.87" cy="675.862" r="3.6419" transform="rotate(-117.488 1211.87 675.862)" fill="white"/>
<circle cx="1206.64" cy="697.7" r="3.6419" transform="rotate(-117.488 1206.64 697.7)" fill="white"/>
<circle cx="1179.84" cy="662.298" r="3.6419" transform="rotate(-117.488 1179.84 662.298)" fill="white"/>
<circle cx="1153.47" cy="677.362" r="3.6419" transform="rotate(-117.488 1153.47 677.362)" fill="white"/>
<circle cx="1289.6" cy="690.112" r="2.73142" transform="rotate(3.37628 1289.6 690.112)" fill="white"/>
<circle cx="1277.94" cy="717.697" r="3.6419" transform="rotate(3.37628 1277.94 717.697)" fill="white"/>
<ellipse cx="64.1563" cy="981.446" rx="3.79518" ry="4.55421" fill="white"/>
<circle cx="81.614" cy="960.193" r="4.55421" fill="white"/>
<circle cx="111.217" cy="951.843" r="3.79518" fill="white"/>
<circle cx="95.0682" cy="865.864" r="4.53987" transform="rotate(-20.9735 95.0682 865.864)" fill="white"/>
<circle cx="123.515" cy="872.368" r="8.51225" transform="rotate(-20.9735 123.515 872.368)" fill="white"/>
<circle cx="63.862" cy="871.454" r="4.53987" transform="rotate(-141.838 63.862 871.454)" fill="white"/>
<circle cx="36.3745" cy="908.664" r="4.53987" transform="rotate(-141.838 36.3745 908.664)" fill="white"/>
<circle cx="45.8894" cy="928.751" r="4.53987" transform="rotate(-141.838 45.8894 928.751)" fill="white"/>
<circle cx="51.1755" cy="956.239" r="4.53987" transform="rotate(-141.838 51.1755 956.239)" fill="white"/>
<circle cx="141.487" cy="904.983" r="3.4049" transform="rotate(-20.9735 141.487 904.983)" fill="white"/>
<circle cx="142.423" cy="942.304" r="4.53987" transform="rotate(-20.9735 142.423 942.304)" fill="white"/>
<circle cx="1244.73" cy="425.788" r="7.51383" transform="rotate(-65.4204 1244.73 425.788)" fill="white"/>
<circle cx="1249.29" cy="274.067" r="7.51383" transform="rotate(-65.4204 1249.29 274.067)" fill="white"/>
<circle cx="1378.88" cy="347.493" r="7.51383" transform="rotate(-65.4204 1378.88 347.493)" fill="white"/>
<circle cx="1231.5" cy="394.95" r="4.62389" transform="rotate(-65.4204 1231.5 394.95)" fill="white"/>
<circle cx="1278.47" cy="406.51" r="4.62389" transform="rotate(-65.4204 1278.47 406.51)" fill="white"/>
<circle cx="1299.33" cy="366.474" r="4.62389" transform="rotate(-65.4204 1299.33 366.474)" fill="white"/>
<circle cx="1355.94" cy="378.668" r="4.62389" transform="rotate(-65.4204 1355.94 378.668)" fill="white"/>
<circle cx="1311.86" cy="325.174" r="4.62389" transform="rotate(-65.4204 1311.86 325.174)" fill="white"/>
<circle cx="1280.93" cy="298.314" r="4.62389" transform="rotate(-65.4204 1280.93 298.314)" fill="white"/>
<circle cx="1232.53" cy="305.436" r="4.62389" transform="rotate(136.834 1232.53 305.436)" fill="white"/>
<circle cx="1205.29" cy="338.913" r="4.62389" transform="rotate(136.834 1205.29 338.913)" fill="white"/>
<circle cx="1169.82" cy="286.492" r="4.62389" transform="rotate(136.834 1169.82 286.492)" fill="white"/>
<circle cx="1218.06" cy="257.971" r="4.62389" transform="rotate(136.834 1218.06 257.971)" fill="white"/>
<circle cx="1215.81" cy="371.566" r="4.62389" transform="rotate(136.834 1215.81 371.566)" fill="white"/>
<circle cx="1236.81" cy="246" r="4.04591" transform="rotate(-65.4204 1236.81 246)" fill="white"/>
<circle cx="1369.63" cy="318.489" r="4.04591" transform="rotate(-65.4204 1369.63 318.489)" fill="white"/>
<circle cx="1225.3" cy="219.759" r="4.62389" transform="rotate(-65.4204 1225.3 219.759)" fill="white"/>
<circle cx="1229.68" cy="189.347" r="4.04591" transform="rotate(-65.4204 1229.68 189.347)" fill="white"/>
<circle cx="1126.35" cy="155.411" r="4.62389" transform="rotate(-86.3939 1126.35 155.411)" fill="white"/>
<circle cx="1159.54" cy="121.306" r="4.62389" transform="rotate(-86.3939 1159.54 121.306)" fill="white"/>
<circle cx="1162.31" cy="175.355" r="4.62389" transform="rotate(-86.3939 1162.31 175.355)" fill="white"/>
<circle cx="1199.95" cy="112.298" r="4.62389" transform="rotate(-86.3939 1199.95 112.298)" fill="white"/>
<circle cx="1161.22" cy="144.288" r="8.6698" transform="rotate(-86.3939 1161.22 144.288)" fill="white"/>
<circle cx="1338.13" cy="320.408" r="8.6698" transform="rotate(-86.3939 1338.13 320.408)" fill="white"/>
<circle cx="1321.15" cy="398.411" r="8.6698" transform="rotate(-86.3939 1321.15 398.411)" fill="white"/>
<circle cx="1199.04" cy="141.46" r="3.46792" transform="rotate(-86.3939 1199.04 141.46)" fill="white"/>
<circle cx="1234.01" cy="156.404" r="4.62389" transform="rotate(-86.3939 1234.01 156.404)" fill="white"/>
<circle cx="193.849" cy="475.997" r="5.84883" fill="white"/>
<circle cx="237.271" cy="430.211" r="5.84883" fill="white"/>
<circle cx="193.022" cy="422.521" r="3.59928" fill="white"/>
<circle cx="210.098" cy="487.978" r="3.59928" fill="white"/>
<circle cx="228.597" cy="487.978" r="3.59928" fill="white"/>
<circle cx="247.095" cy="475.171" r="3.59928" fill="white"/>
<circle cx="247.095" cy="456.672" r="3.59928" fill="white"/>
<circle cx="256.606" cy="412.11" r="3.14937" fill="white"/>
<circle cx="278.401" cy="415.406" r="3.59928" fill="white"/>
<circle cx="193.995" cy="453.376" r="3.14937" fill="white"/>
<circle cx="217.213" cy="429.636" r="3.59928" fill="white"/>
<circle cx="199.017" cy="437.054" r="6.74865" fill="white"/>
<circle cx="194.968" cy="410.237" r="2.69946" fill="white"/>
<circle cx="204.406" cy="402.599" r="3.59928" fill="white"/>
<circle cx="1072.25" cy="610.268" r="6.97794" transform="rotate(-65.4204 1072.25 610.268)" fill="white"/>
<circle cx="1356.98" cy="500.978" r="6.97794" fill="white"/>
<circle cx="334.978" cy="852.978" r="6.97794" fill="white"/>
<circle cx="211.978" cy="390.978" r="6.97794" fill="white"/>
<circle cx="1176.29" cy="447.294" r="4.29412" fill="white"/>
<circle cx="1109.29" cy="566.294" r="4.29412" fill="white"/>
<circle cx="233.294" cy="119.294" r="4.29412" fill="white"/>
<circle cx="209.294" cy="128.294" r="4.29412" fill="white"/>
<circle cx="175.294" cy="101.294" r="4.29412" fill="white"/>
<circle cx="44.0757" cy="518.076" r="4.5" transform="rotate(-62.3123 44.0757 518.076)" fill="white"/>
<circle cx="900.358" cy="570.649" r="4.49655" transform="rotate(46.1952 900.358 570.649)" fill="white"/>
<circle cx="462.1" cy="421.1" r="2.89978" transform="rotate(46.1952 462.1 421.1)" fill="white"/>
<circle cx="660.833" cy="397.833" r="4.83297" transform="rotate(46.1952 660.833 397.833)" fill="white"/>
<circle cx="871.985" cy="189.985" r="4.83297" transform="rotate(-16.1171 871.985 189.985)" fill="white"/>
<circle cx="133.344" cy="778.344" r="4.5" transform="rotate(49.4871 133.344 778.344)" fill="white"/>
<circle cx="33.9777" cy="745.978" r="7.5" transform="rotate(-12.8252 33.9777 745.978)" fill="white"/>
<circle cx="119.571" cy="84.0519" r="6.97794" transform="rotate(-99.6802 119.571 84.0519)" fill="white"/>
<circle cx="76.6707" cy="103.014" r="4.5" transform="rotate(-99.6802 76.6707 103.014)" fill="white"/>
<circle cx="34.7981" cy="202.47" r="7.5" transform="rotate(-99.6802 34.7981 202.47)" fill="white"/>
<circle cx="35.9633" cy="136.712" r="7.5" transform="rotate(-161.992 35.9633 136.712)" fill="white"/>
</g>
<defs>
<clipPath id="clip0_4_9538">
<rect width="1440" height="1024" fill="white"/>
</clipPath>
</defs>
</svg>
