<svg width="67" height="41" viewBox="0 0 67 41" fill="none" xmlns="http://www.w3.org/2000/svg">
<path d="M16.933 3.01114V9.39541L18.4577 9.41001C29.048 9.51364 35.0124 14.2748 36.5674 23.9242C30.7503 17.121 24.0423 17.1181 18.4736 17.1167H16.933V23.4469L2.66239 13.2283L16.933 3.01114ZM18.4736 0L0 13.2283L18.4736 26.4566V18.6741C25.8673 18.677 32.7225 19.0535 38.5194 29.5042C38.5194 22.8675 37.4351 8.03945 18.4736 7.85408V0Z" fill="#00C996"/>
<path d="M61.3645 23.7673C61.3645 32.82 54.026 40.1585 44.9733 40.1585C35.9206 40.1585 28.582 32.82 28.582 23.7673C28.582 14.7146 35.9206 7.37604 44.9733 7.37604C54.026 7.37604 61.3645 14.7146 61.3645 23.7673Z" fill="#00C996"/>
<path d="M59.3336 13.0802C60.1788 13.0024 60.8006 12.2543 60.723 11.4092C60.6451 10.5641 59.8971 9.94202 59.0519 10.0198C58.1836 10.0997 57.2611 10.2371 56.2961 10.4273C55.8871 10.5079 55.5483 10.7438 55.3286 11.0617L57.6181 13.3088C58.2235 13.2058 58.7964 13.1297 59.3336 13.0802Z" fill="#11FFC3"/>
<path fill-rule="evenodd" clip-rule="evenodd" d="M63.2837 10.202C62.458 10.0064 61.6299 10.5173 61.4344 11.3431C61.2387 12.169 61.7497 12.997 62.5754 13.1926C63.3829 13.3838 63.6939 13.6688 63.8095 13.8535C63.9392 14.061 64.082 14.6032 63.488 15.7958C63.1096 16.5554 63.4188 17.478 64.1783 17.8564C64.938 18.2348 65.8607 17.9258 66.2391 17.1661C67.0128 15.6127 67.393 13.7868 66.4149 12.2234C65.7096 11.0963 64.5233 10.4956 63.2837 10.202ZM62.8232 21.6387C63.4212 21.0365 63.4177 20.0635 62.8154 19.4656C62.2132 18.8677 61.2402 18.8712 60.6423 19.4734C59.2357 20.89 57.4302 22.4021 55.2975 23.9216C54.6062 24.4141 54.4452 25.3737 54.9375 26.0647C55.4301 26.756 56.3896 26.9171 57.0807 26.4247C59.3232 24.827 61.2688 23.2043 62.8232 21.6387ZM27.736 29.8065C28.1489 29.2895 28.632 28.7474 29.1829 28.1856L28.6955 25.4601C28.1724 25.3058 27.5835 25.4355 27.1713 25.8488C26.4852 26.5368 25.8694 27.2189 25.3347 27.8883C24.805 28.5513 24.9131 29.5184 25.5762 30.048C26.2393 30.5777 27.2063 30.4695 27.736 29.8065ZM52.6577 29.3076C53.3863 28.8722 53.6236 27.9284 53.1882 27.2C52.7526 26.4717 51.8091 26.2342 51.0807 26.6698C50.0939 27.2597 49.066 27.8407 48.002 28.4077C46.9087 28.9902 45.8201 29.5348 44.7446 30.04C43.9765 30.4008 43.6462 31.3161 44.007 32.0842C44.3678 32.8524 45.2831 33.1826 46.0512 32.8218C47.1738 32.2944 48.3085 31.7267 49.4471 31.1202C50.5551 30.5297 51.6271 29.9239 52.6577 29.3076ZM26.1539 32.4754C26.4116 31.6669 25.9649 30.8024 25.1563 30.5447C24.3477 30.2871 23.4833 30.7336 23.2256 31.5423C22.8328 32.7749 22.7911 34.1292 23.5314 35.3127C24.4593 36.7957 26.2086 37.3747 27.9452 37.5409C28.79 37.6218 29.5404 37.0024 29.6213 36.1577C29.7021 35.3129 29.0828 34.5624 28.238 34.4817C26.8153 34.3454 26.2947 33.9348 26.1369 33.6826C26.035 33.5197 25.9285 33.1828 26.1539 32.4754ZM41.0457 34.9398C41.8403 34.6415 42.2425 33.7555 41.9444 32.9612C41.6461 32.1666 40.7601 31.7642 39.9656 32.0625C37.4563 33.0046 35.1201 33.685 33.0779 34.0891C32.2453 34.2538 31.704 35.0623 31.8686 35.8948C32.0334 36.7273 32.8418 37.2688 33.6743 37.104C35.9128 36.6611 38.4126 35.9284 41.0457 34.9398Z" fill="#11FFC3"/>
</svg>
