<svg width="66" height="39" viewBox="0 0 66 39" fill="none" xmlns="http://www.w3.org/2000/svg">
<path d="M32.5 4L35.98 14.7102H47.2414L38.1307 21.3295L41.6107 32.0398L32.5 25.4205L23.3893 32.0398L26.8693 21.3295L17.7586 14.7102H29.02L32.5 4Z" fill="#A06BFF"/>
<circle cx="32" cy="1" r="1" fill="#A06BFF"/>
<circle cx="34" cy="38" r="1" fill="#A06BFF"/>
<circle cx="30" cy="38" r="1" fill="#A06BFF"/>
<circle cx="26" cy="38" r="1" fill="#A06BFF"/>
<circle cx="34" cy="38" r="1" fill="#A06BFF"/>
<circle cx="30" cy="38" r="1" fill="#A06BFF"/>
<circle cx="26" cy="38" r="1" fill="#A06BFF"/>
<circle cx="28" cy="1" r="1" fill="#A06BFF"/>
<circle cx="28" cy="1" r="1" fill="#A06BFF"/>
<circle cx="28" cy="1" r="1" fill="#A06BFF"/>
<circle cx="28" cy="1" r="1" fill="#A06BFF"/>
<circle cx="22" cy="38" r="1" transform="rotate(-180 22 38)" fill="#A06BFF"/>
<circle cx="18" cy="38" r="1" transform="rotate(-180 18 38)" fill="#A06BFF"/>
<circle cx="14" cy="38" r="1" transform="rotate(-180 14 38)" fill="#A06BFF"/>
<circle cx="10" cy="38" r="1" transform="rotate(-180 10 38)" fill="#A06BFF"/>
<circle cx="6" cy="38" r="1" transform="rotate(-180 6 38)" fill="#A06BFF"/>
<circle cx="3" cy="36" r="1" transform="rotate(-180 3 36)" fill="#A06BFF"/>
<circle cx="1" cy="33" r="1" transform="rotate(-180 1 33)" fill="#A06BFF"/>
<circle cx="1" cy="29" r="1" transform="rotate(-180 1 29)" fill="#A06BFF"/>
<circle cx="1" cy="25" r="1" transform="rotate(-180 1 25)" fill="#A06BFF"/>
<circle cx="1" cy="21" r="1" transform="rotate(-180 1 21)" fill="#A06BFF"/>
<circle cx="1" cy="17" r="1" transform="rotate(-180 1 17)" fill="#A06BFF"/>
<circle cx="1" cy="13" r="1" transform="rotate(-180 1 13)" fill="#A06BFF"/>
<circle cx="1" cy="9" r="1" transform="rotate(-180 1 9)" fill="#A06BFF"/>
<circle cx="2" cy="5" r="1" transform="rotate(-180 2 5)" fill="#A06BFF"/>
<circle cx="4" cy="2" r="1" transform="rotate(-180 4 2)" fill="#A06BFF"/>
<circle cx="8" cy="1" r="1" transform="rotate(-180 8 1)" fill="#A06BFF"/>
<circle cx="12" cy="1" r="1" transform="rotate(-180 12 1)" fill="#A06BFF"/>
<circle cx="16" cy="1" r="1" transform="rotate(-180 16 1)" fill="#A06BFF"/>
<circle cx="20" cy="1" r="1" transform="rotate(-180 20 1)" fill="#A06BFF"/>
<circle cx="24" cy="1" r="1" transform="rotate(-180 24 1)" fill="#A06BFF"/>
<circle cx="24" cy="1" r="1" transform="rotate(-180 24 1)" fill="#A06BFF"/>
<circle cx="12" cy="1" r="1" transform="rotate(-180 12 1)" fill="#A06BFF"/>
<circle cx="16" cy="1" r="1" transform="rotate(-180 16 1)" fill="#A06BFF"/>
<circle cx="20" cy="1" r="1" transform="rotate(-180 20 1)" fill="#A06BFF"/>
<circle cx="24" cy="1" r="1" transform="rotate(-180 24 1)" fill="#A06BFF"/>
<circle cx="24" cy="1" r="1" transform="rotate(-180 24 1)" fill="#A06BFF"/>
<circle cx="36" cy="1" r="1" fill="#A06BFF"/>
<circle cx="40" cy="1" r="1" fill="#A06BFF"/>
<circle cx="44" cy="1" r="1" fill="#A06BFF"/>
<circle cx="48" cy="1" r="1" fill="#A06BFF"/>
<circle cx="52" cy="1" r="1" fill="#A06BFF"/>
<circle cx="56" cy="1" r="1" fill="#A06BFF"/>
<circle cx="60" cy="1" r="1" fill="#A06BFF"/>
<circle cx="63" cy="3" r="1" fill="#A06BFF"/>
<circle cx="65" cy="6" r="1" fill="#A06BFF"/>
<circle cx="65" cy="10" r="1" fill="#A06BFF"/>
<circle cx="65" cy="14" r="1" fill="#A06BFF"/>
<circle cx="65" cy="18" r="1" fill="#A06BFF"/>
<circle cx="65" cy="22" r="1" fill="#A06BFF"/>
<circle cx="65" cy="26" r="1" fill="#A06BFF"/>
<circle cx="65" cy="30" r="1" fill="#A06BFF"/>
<circle cx="64" cy="34" r="1" fill="#A06BFF"/>
<circle cx="62" cy="37" r="1" fill="#A06BFF"/>
<circle cx="58" cy="38" r="1" fill="#A06BFF"/>
<circle cx="54" cy="38" r="1" fill="#A06BFF"/>
<circle cx="50" cy="38" r="1" fill="#A06BFF"/>
<circle cx="46" cy="38" r="1" fill="#A06BFF"/>
<circle cx="42" cy="38" r="1" fill="#A06BFF"/>
<circle cx="42" cy="38" r="1" fill="#A06BFF"/>
<circle cx="38" cy="38" r="1" fill="#A06BFF"/>
<circle cx="54" cy="38" r="1" fill="#A06BFF"/>
<circle cx="50" cy="38" r="1" fill="#A06BFF"/>
<circle cx="46" cy="38" r="1" fill="#A06BFF"/>
<circle cx="42" cy="38" r="1" fill="#A06BFF"/>
<circle cx="42" cy="38" r="1" fill="#A06BFF"/>
<circle cx="38" cy="38" r="1" fill="#A06BFF"/>
</svg>
