<svg width="134" height="39" viewBox="0 0 134 39" fill="none" xmlns="http://www.w3.org/2000/svg">
<path d="M30.5 4L33.98 14.7102H45.2414L36.1307 21.3295L39.6107 32.0398L30.5 25.4205L21.3893 32.0398L24.8693 21.3295L15.7586 14.7102H27.02L30.5 4Z" fill="#00C996"/>
<path d="M65.5 4L68.98 14.7102H80.2414L71.1307 21.3295L74.6107 32.0398L65.5 25.4205L56.3893 32.0398L59.8693 21.3295L50.7586 14.7102H62.02L65.5 4Z" fill="#00C996"/>
<path d="M101.5 4L104.98 14.7102H116.241L107.131 21.3295L110.611 32.0398L101.5 25.4205L92.3893 32.0398L95.8693 21.3295L86.7586 14.7102H98.02L101.5 4Z" fill="#00C996"/>
<circle cx="86" cy="38" r="1" fill="#00C996"/>
<circle cx="82" cy="38" r="1" fill="#00C996"/>
<circle cx="78" cy="38" r="1" fill="#00C996"/>
<circle cx="74" cy="38" r="1" fill="#00C996"/>
<circle cx="74" cy="38" r="1" fill="#00C996"/>
<circle cx="70" cy="38" r="1" fill="#00C996"/>
<circle cx="66" cy="38" r="1" fill="#00C996"/>
<circle cx="62" cy="38" r="1" fill="#00C996"/>
<circle cx="58" cy="38" r="1" fill="#00C996"/>
<circle cx="54" cy="38" r="1" fill="#00C996"/>
<circle cx="54" cy="38" r="1" fill="#00C996"/>
<circle cx="86" cy="38" r="1" fill="#00C996"/>
<circle cx="82" cy="38" r="1" fill="#00C996"/>
<circle cx="78" cy="38" r="1" fill="#00C996"/>
<circle cx="74" cy="38" r="1" fill="#00C996"/>
<circle cx="74" cy="38" r="1" fill="#00C996"/>
<circle cx="70" cy="38" r="1" fill="#00C996"/>
<circle cx="66" cy="38" r="1" fill="#00C996"/>
<circle cx="62" cy="38" r="1" fill="#00C996"/>
<circle cx="58" cy="38" r="1" fill="#00C996"/>
<circle cx="54" cy="38" r="1" fill="#00C996"/>
<circle cx="54" cy="38" r="1" fill="#00C996"/>
<circle cx="100" cy="1" r="1" fill="#00C996"/>
<circle cx="104" cy="1" r="1" fill="#00C996"/>
<circle cx="108" cy="1" r="1" fill="#00C996"/>
<circle cx="112" cy="1" r="1" fill="#00C996"/>
<circle cx="116" cy="1" r="1" fill="#00C996"/>
<circle cx="120" cy="1" r="1" fill="#00C996"/>
<circle cx="124" cy="1" r="1" fill="#00C996"/>
<circle cx="128" cy="1" r="1" fill="#00C996"/>
<circle cx="131" cy="3" r="1" fill="#00C996"/>
<circle cx="133" cy="6" r="1" fill="#00C996"/>
<circle cx="133" cy="10" r="1" fill="#00C996"/>
<circle cx="133" cy="14" r="1" fill="#00C996"/>
<circle cx="133" cy="18" r="1" fill="#00C996"/>
<circle cx="133" cy="22" r="1" fill="#00C996"/>
<circle cx="133" cy="26" r="1" fill="#00C996"/>
<circle cx="133" cy="30" r="1" fill="#00C996"/>
<circle cx="132" cy="34" r="1" fill="#00C996"/>
<circle cx="130" cy="37" r="1" fill="#00C996"/>
<circle cx="126" cy="38" r="1" fill="#00C996"/>
<circle cx="122" cy="38" r="1" fill="#00C996"/>
<circle cx="118" cy="38" r="1" fill="#00C996"/>
<circle cx="114" cy="38" r="1" fill="#00C996"/>
<circle cx="110" cy="38" r="1" fill="#00C996"/>
<circle cx="110" cy="38" r="1" fill="#00C996"/>
<circle cx="106" cy="38" r="1" fill="#00C996"/>
<circle cx="102" cy="38" r="1" fill="#00C996"/>
<circle cx="98" cy="38" r="1" fill="#00C996"/>
<circle cx="94" cy="38" r="1" fill="#00C996"/>
<circle cx="90" cy="38" r="1" fill="#00C996"/>
<circle cx="90" cy="38" r="1" fill="#00C996"/>
<circle cx="122" cy="38" r="1" fill="#00C996"/>
<circle cx="118" cy="38" r="1" fill="#00C996"/>
<circle cx="114" cy="38" r="1" fill="#00C996"/>
<circle cx="110" cy="38" r="1" fill="#00C996"/>
<circle cx="110" cy="38" r="1" fill="#00C996"/>
<circle cx="106" cy="38" r="1" fill="#00C996"/>
<circle cx="102" cy="38" r="1" fill="#00C996"/>
<circle cx="98" cy="38" r="1" fill="#00C996"/>
<circle cx="94" cy="38" r="1" fill="#00C996"/>
<circle cx="90" cy="38" r="1" fill="#00C996"/>
<circle cx="90" cy="38" r="1" fill="#00C996"/>
<circle cx="96" cy="1" r="1" fill="#00C996"/>
<circle cx="92" cy="1" r="1" fill="#00C996"/>
<circle cx="88" cy="1" r="1" fill="#00C996"/>
<circle cx="84" cy="1" r="1" fill="#00C996"/>
<circle cx="84" cy="1" r="1" fill="#00C996"/>
<circle cx="80" cy="1" r="1" fill="#00C996"/>
<circle cx="76" cy="1" r="1" fill="#00C996"/>
<circle cx="72" cy="1" r="1" fill="#00C996"/>
<circle cx="68" cy="1" r="1" fill="#00C996"/>
<circle cx="64" cy="1" r="1" fill="#00C996"/>
<circle cx="64" cy="1" r="1" fill="#00C996"/>
<circle cx="96" cy="1" r="1" fill="#00C996"/>
<circle cx="92" cy="1" r="1" fill="#00C996"/>
<circle cx="88" cy="1" r="1" fill="#00C996"/>
<circle cx="84" cy="1" r="1" fill="#00C996"/>
<circle cx="84" cy="1" r="1" fill="#00C996"/>
<circle cx="80" cy="1" r="1" fill="#00C996"/>
<circle cx="76" cy="1" r="1" fill="#00C996"/>
<circle cx="72" cy="1" r="1" fill="#00C996"/>
<circle cx="68" cy="1" r="1" fill="#00C996"/>
<circle cx="64" cy="1" r="1" fill="#00C996"/>
<circle cx="64" cy="1" r="1" fill="#00C996"/>
<circle cx="96" cy="1" r="1" fill="#00C996"/>
<circle cx="92" cy="1" r="1" fill="#00C996"/>
<circle cx="88" cy="1" r="1" fill="#00C996"/>
<circle cx="84" cy="1" r="1" fill="#00C996"/>
<circle cx="84" cy="1" r="1" fill="#00C996"/>
<circle cx="80" cy="1" r="1" fill="#00C996"/>
<circle cx="76" cy="1" r="1" fill="#00C996"/>
<circle cx="72" cy="1" r="1" fill="#00C996"/>
<circle cx="68" cy="1" r="1" fill="#00C996"/>
<circle cx="64" cy="1" r="1" fill="#00C996"/>
<circle cx="64" cy="1" r="1" fill="#00C996"/>
<circle cx="96" cy="1" r="1" fill="#00C996"/>
<circle cx="92" cy="1" r="1" fill="#00C996"/>
<circle cx="88" cy="1" r="1" fill="#00C996"/>
<circle cx="84" cy="1" r="1" fill="#00C996"/>
<circle cx="84" cy="1" r="1" fill="#00C996"/>
<circle cx="80" cy="1" r="1" fill="#00C996"/>
<circle cx="76" cy="1" r="1" fill="#00C996"/>
<circle cx="72" cy="1" r="1" fill="#00C996"/>
<circle cx="68" cy="1" r="1" fill="#00C996"/>
<circle cx="48" cy="1" r="1" transform="rotate(-180 48 1)" fill="#00C996"/>
<circle cx="52" cy="1" r="1" transform="rotate(-180 52 1)" fill="#00C996"/>
<circle cx="56" cy="1" r="1" transform="rotate(-180 56 1)" fill="#00C996"/>
<circle cx="60" cy="1" r="1" transform="rotate(-180 60 1)" fill="#00C996"/>
<circle cx="60" cy="1" r="1" transform="rotate(-180 60 1)" fill="#00C996"/>
<circle cx="64" cy="1" r="1" transform="rotate(-180 64 1)" fill="#00C996"/>
<circle cx="48" cy="1" r="1" transform="rotate(-180 48 1)" fill="#00C996"/>
<circle cx="52" cy="1" r="1" transform="rotate(-180 52 1)" fill="#00C996"/>
<circle cx="56" cy="1" r="1" transform="rotate(-180 56 1)" fill="#00C996"/>
<circle cx="60" cy="1" r="1" transform="rotate(-180 60 1)" fill="#00C996"/>
<circle cx="60" cy="1" r="1" transform="rotate(-180 60 1)" fill="#00C996"/>
<circle cx="64" cy="1" r="1" transform="rotate(-180 64 1)" fill="#00C996"/>
<circle cx="34" cy="38" r="1" transform="rotate(-180 34 38)" fill="#00C996"/>
<circle cx="30" cy="38" r="1" transform="rotate(-180 30 38)" fill="#00C996"/>
<circle cx="26" cy="38" r="1" transform="rotate(-180 26 38)" fill="#00C996"/>
<circle cx="22" cy="38" r="1" transform="rotate(-180 22 38)" fill="#00C996"/>
<circle cx="18" cy="38" r="1" transform="rotate(-180 18 38)" fill="#00C996"/>
<circle cx="14" cy="38" r="1" transform="rotate(-180 14 38)" fill="#00C996"/>
<circle cx="10" cy="38" r="1" transform="rotate(-180 10 38)" fill="#00C996"/>
<circle cx="6" cy="38" r="1" transform="rotate(-180 6 38)" fill="#00C996"/>
<circle cx="3" cy="36" r="1" transform="rotate(-180 3 36)" fill="#00C996"/>
<circle cx="1" cy="33" r="1" transform="rotate(-180 1 33)" fill="#00C996"/>
<circle cx="1" cy="29" r="1" transform="rotate(-180 1 29)" fill="#00C996"/>
<circle cx="1" cy="25" r="1" transform="rotate(-180 1 25)" fill="#00C996"/>
<circle cx="1" cy="21" r="1" transform="rotate(-180 1 21)" fill="#00C996"/>
<circle cx="1" cy="17" r="1" transform="rotate(-180 1 17)" fill="#00C996"/>
<circle cx="1" cy="13" r="1" transform="rotate(-180 1 13)" fill="#00C996"/>
<circle cx="1" cy="9" r="1" transform="rotate(-180 1 9)" fill="#00C996"/>
<circle cx="2" cy="5" r="1" transform="rotate(-180 2 5)" fill="#00C996"/>
<circle cx="4" cy="2" r="1" transform="rotate(-180 4 2)" fill="#00C996"/>
<circle cx="8" cy="1" r="1" transform="rotate(-180 8 1)" fill="#00C996"/>
<circle cx="12" cy="1" r="1" transform="rotate(-180 12 1)" fill="#00C996"/>
<circle cx="16" cy="1" r="1" transform="rotate(-180 16 1)" fill="#00C996"/>
<circle cx="20" cy="1" r="1" transform="rotate(-180 20 1)" fill="#00C996"/>
<circle cx="24" cy="1" r="1" transform="rotate(-180 24 1)" fill="#00C996"/>
<circle cx="24" cy="1" r="1" transform="rotate(-180 24 1)" fill="#00C996"/>
<circle cx="28" cy="1" r="1" transform="rotate(-180 28 1)" fill="#00C996"/>
<circle cx="32" cy="1" r="1" transform="rotate(-180 32 1)" fill="#00C996"/>
<circle cx="36" cy="1" r="1" transform="rotate(-180 36 1)" fill="#00C996"/>
<circle cx="40" cy="1" r="1" transform="rotate(-180 40 1)" fill="#00C996"/>
<circle cx="44" cy="1" r="1" transform="rotate(-180 44 1)" fill="#00C996"/>
<circle cx="44" cy="1" r="1" transform="rotate(-180 44 1)" fill="#00C996"/>
<circle cx="12" cy="1" r="1" transform="rotate(-180 12 1)" fill="#00C996"/>
<circle cx="16" cy="1" r="1" transform="rotate(-180 16 1)" fill="#00C996"/>
<circle cx="20" cy="1" r="1" transform="rotate(-180 20 1)" fill="#00C996"/>
<circle cx="24" cy="1" r="1" transform="rotate(-180 24 1)" fill="#00C996"/>
<circle cx="24" cy="1" r="1" transform="rotate(-180 24 1)" fill="#00C996"/>
<circle cx="28" cy="1" r="1" transform="rotate(-180 28 1)" fill="#00C996"/>
<circle cx="32" cy="1" r="1" transform="rotate(-180 32 1)" fill="#00C996"/>
<circle cx="36" cy="1" r="1" transform="rotate(-180 36 1)" fill="#00C996"/>
<circle cx="40" cy="1" r="1" transform="rotate(-180 40 1)" fill="#00C996"/>
<circle cx="44" cy="1" r="1" transform="rotate(-180 44 1)" fill="#00C996"/>
<circle cx="44" cy="1" r="1" transform="rotate(-180 44 1)" fill="#00C996"/>
<circle cx="38" cy="38" r="1" transform="rotate(-180 38 38)" fill="#00C996"/>
<circle cx="42" cy="38" r="1" transform="rotate(-180 42 38)" fill="#00C996"/>
<circle cx="46" cy="38" r="1" transform="rotate(-180 46 38)" fill="#00C996"/>
<circle cx="50" cy="38" r="1" transform="rotate(-180 50 38)" fill="#00C996"/>
<circle cx="50" cy="38" r="1" transform="rotate(-180 50 38)" fill="#00C996"/>
<circle cx="54" cy="38" r="1" transform="rotate(-180 54 38)" fill="#00C996"/>
<circle cx="58" cy="38" r="1" transform="rotate(-180 58 38)" fill="#00C996"/>
<circle cx="62" cy="38" r="1" transform="rotate(-180 62 38)" fill="#00C996"/>
<circle cx="66" cy="38" r="1" transform="rotate(-180 66 38)" fill="#00C996"/>
<circle cx="38" cy="38" r="1" transform="rotate(-180 38 38)" fill="#00C996"/>
<circle cx="42" cy="38" r="1" transform="rotate(-180 42 38)" fill="#00C996"/>
<circle cx="46" cy="38" r="1" transform="rotate(-180 46 38)" fill="#00C996"/>
<circle cx="50" cy="38" r="1" transform="rotate(-180 50 38)" fill="#00C996"/>
<circle cx="50" cy="38" r="1" transform="rotate(-180 50 38)" fill="#00C996"/>
<circle cx="54" cy="38" r="1" transform="rotate(-180 54 38)" fill="#00C996"/>
<circle cx="58" cy="38" r="1" transform="rotate(-180 58 38)" fill="#00C996"/>
<circle cx="62" cy="38" r="1" transform="rotate(-180 62 38)" fill="#00C996"/>
<circle cx="66" cy="38" r="1" transform="rotate(-180 66 38)" fill="#00C996"/>
<circle cx="38" cy="38" r="1" transform="rotate(-180 38 38)" fill="#00C996"/>
<circle cx="42" cy="38" r="1" transform="rotate(-180 42 38)" fill="#00C996"/>
<circle cx="46" cy="38" r="1" transform="rotate(-180 46 38)" fill="#00C996"/>
<circle cx="50" cy="38" r="1" transform="rotate(-180 50 38)" fill="#00C996"/>
<circle cx="50" cy="38" r="1" transform="rotate(-180 50 38)" fill="#00C996"/>
<circle cx="54" cy="38" r="1" transform="rotate(-180 54 38)" fill="#00C996"/>
<circle cx="58" cy="38" r="1" transform="rotate(-180 58 38)" fill="#00C996"/>
<circle cx="62" cy="38" r="1" transform="rotate(-180 62 38)" fill="#00C996"/>
<circle cx="66" cy="38" r="1" transform="rotate(-180 66 38)" fill="#00C996"/>
<circle cx="38" cy="38" r="1" transform="rotate(-180 38 38)" fill="#00C996"/>
<circle cx="42" cy="38" r="1" transform="rotate(-180 42 38)" fill="#00C996"/>
<circle cx="46" cy="38" r="1" transform="rotate(-180 46 38)" fill="#00C996"/>
<circle cx="50" cy="38" r="1" transform="rotate(-180 50 38)" fill="#00C996"/>
<circle cx="50" cy="38" r="1" transform="rotate(-180 50 38)" fill="#00C996"/>
<circle cx="54" cy="38" r="1" transform="rotate(-180 54 38)" fill="#00C996"/>
<circle cx="58" cy="38" r="1" transform="rotate(-180 58 38)" fill="#00C996"/>
<circle cx="62" cy="38" r="1" transform="rotate(-180 62 38)" fill="#00C996"/>
<circle cx="64" cy="1" r="1" fill="#00C996"/>
<circle cx="64" cy="1" r="1" fill="#00C996"/>
</svg>
