<svg width="18" height="19" viewBox="0 0 18 19" fill="none" xmlns="http://www.w3.org/2000/svg">
<g id="Vector">
<path id="Vector_2" d="M16.0271 14.4972L11.6987 12.1019C13.3074 10.8374 13.7443 8.35249 13.7443 6.95924V4.05913C13.7443 2.13877 11.1903 0 8.62492 0C6.06024 0 3.4385 2.13911 3.4385 4.05913V6.95924C3.4385 8.22609 3.97506 10.789 5.60031 12.0909L1.16014 14.4972C1.16014 14.4972 0 15.0136 0 15.6575V17.398C0 18.0384 0.520408 18.5583 1.16014 18.5583H16.0271C16.6675 18.5583 17.1879 18.0384 17.1879 17.398V15.6576C17.1879 14.9749 16.0271 14.4972 16.0271 14.4972ZM15.813 17.1847H1.37502V15.9567C1.47368 15.8849 1.61152 15.8018 1.72014 15.752C1.75243 15.7373 1.78474 15.7218 1.81534 15.7043L6.25583 13.2983C6.66076 13.0789 6.92923 12.672 6.97013 12.2139C7.01104 11.7557 6.81957 11.3069 6.4607 11.0191C5.30778 10.0957 4.81382 8.05033 4.81382 6.95931V4.05919C4.81382 3.07257 6.67554 1.37371 8.62526 1.37371C10.6111 1.37371 12.3697 3.04924 12.3697 4.05919V6.95931C12.3697 8.03522 12.0352 10.0895 10.8489 11.0219C10.6701 11.1625 10.529 11.3453 10.4382 11.5538C10.3474 11.7623 10.3097 11.99 10.3285 12.2166C10.3477 12.4431 10.4227 12.6613 10.5468 12.8517C10.671 13.0422 10.8405 13.1989 11.0401 13.308L15.3685 15.7033C15.4067 15.7242 15.4551 15.7469 15.4954 15.7644C15.5968 15.8073 15.7215 15.8791 15.813 15.9423V17.1847Z" fill="white"/>
</g>
</svg>
