<svg width="35" height="37" viewBox="0 0 35 37" fill="none" xmlns="http://www.w3.org/2000/svg">
<path d="M12.2743 19.1574C11.8692 19.0404 10.9206 18.7656 10.4796 17.4687L9.5711 14.7971L9.20568 14.9212C9.03838 14.9781 8.85502 14.8878 8.79807 14.7205L8.31066 13.2872C8.2537 13.1199 8.34401 12.9366 8.51145 12.8797L20.289 8.87506C20.4562 8.81817 20.6397 8.90856 20.6966 9.07578L21.184 10.5091C21.2408 10.6763 21.1504 10.8596 20.9833 10.9166L20.6179 11.0409L21.5427 13.7612C21.9794 15.0454 21.6905 15.479 21.1425 16.1353L18.7592 18.9893L19.0249 19.7705C19.9368 19.9684 22.3199 20.4877 22.6407 20.5803C23.0457 20.6975 23.9946 20.972 24.4356 22.269L25.2177 24.5694L25.5832 24.4452C25.7503 24.3883 25.9339 24.4785 25.9909 24.6458L26.4781 26.0791C26.535 26.2464 26.4446 26.4297 26.2773 26.4867L14.4997 30.4915C14.3326 30.5483 14.1491 30.458 14.0922 30.2906L13.6051 28.8575C13.548 28.6902 13.6384 28.5068 13.8058 28.4499L14.1711 28.3256L13.3726 25.9766C12.9359 24.6925 13.2246 24.2586 13.7727 23.6026L16.1558 20.7486L15.8904 19.9674C14.9784 19.7695 12.5953 19.2504 12.2743 19.1574ZM17.2516 21.2405L14.66 24.3437C14.4612 24.5818 14.3559 24.7118 14.3273 24.8308C14.293 24.9737 14.3389 25.2268 14.4673 25.6041L15.2659 27.9533L24.1229 24.9417L23.3409 22.6415C23.094 21.9154 22.6463 21.7858 22.3196 21.6912C22.064 21.6174 19.8718 21.1367 18.4606 20.8315C18.2623 20.7886 18.1008 20.6446 18.0355 20.4524L17.5599 19.054C17.4951 18.863 17.5343 18.6522 17.6635 18.4974L20.2473 15.4035L20.2551 15.394C20.454 15.1559 20.5593 15.0259 20.5878 14.9068C20.6221 14.7639 20.5764 14.511 20.4479 14.1335L19.5231 11.4131L10.6658 14.4247L11.5744 17.0964C11.8212 17.8226 12.2687 17.9521 12.5955 18.0467C12.8509 18.1206 15.0432 18.6014 16.4543 18.9064C16.6527 18.9494 16.8143 19.0932 16.8797 19.2856L17.3551 20.6838C17.4201 20.8749 17.3807 21.0856 17.2516 21.2405Z" fill="#F39314"/>
<path d="M10.2544 32.2672C10.513 32.4137 10.7795 32.554 11.0463 32.684C11.0895 32.7051 11.1311 32.7282 11.1714 32.7531C11.2142 32.7679 11.2568 32.7852 11.299 32.8049C12.4569 33.3447 13.6643 33.7249 14.908 33.9453C14.9239 33.9476 14.9398 33.9485 14.9559 33.9514C15.2492 34.0032 15.5476 34.0464 15.8427 34.0802C15.8459 34.0808 15.8492 34.0815 15.8524 34.0819C16.3944 34.1417 16.9425 34.1722 17.4963 34.1722C23.882 34.1722 29.3279 30.0748 31.3457 24.3715C31.3761 24.2845 31.4067 24.1976 31.4355 24.1105C31.9192 22.656 32.1819 21.1016 32.1819 19.4867C32.1819 17.8686 31.9181 16.3107 31.4323 14.8536C31.4218 14.8217 31.4116 14.7901 31.4008 14.7582C31.3718 14.6734 31.3418 14.5889 31.3112 14.5046C31.297 14.465 31.2826 14.4256 31.2679 14.3863C29.5912 9.87333 25.7559 6.40146 21.0232 5.23041C21.0202 5.22973 21.0172 5.2295 21.0142 5.22881C20.9442 5.21145 20.8737 5.19455 20.8031 5.17825C20.7952 5.1765 20.7876 5.17361 20.78 5.1717C19.7475 4.93504 18.674 4.8078 17.5723 4.80217L17.5596 6.31206C17.5557 6.78082 17.2597 6.9162 16.9023 6.61322L13.7128 3.90974C13.3555 3.60676 13.3593 3.11554 13.7222 2.81857L16.9564 0.169001C17.319 -0.127891 17.6125 0.0124455 17.6085 0.481123L17.5958 1.98805C22.2331 2.01371 26.5889 3.8307 29.8708 7.11251C30.1941 7.43582 30.5027 7.7698 30.7971 8.11314C30.7989 8.11512 30.8007 8.11672 30.8025 8.11885C30.8134 8.13149 30.8237 8.14466 30.8344 8.1573C33.4177 11.1886 34.8741 14.9666 34.9883 18.9747C34.9912 19.0058 34.9945 19.0367 34.9953 19.0685C34.9984 19.2023 35 19.3382 35 19.4726C35 19.6929 34.9955 19.9163 34.9872 20.1366C34.9863 20.1624 34.9829 20.1876 34.9804 20.2129C34.8324 23.8647 33.5697 27.3173 31.3543 30.1771C31.3468 30.1869 31.3407 30.1974 31.3331 30.2072C31.1167 30.4865 30.8879 30.7632 30.6539 31.0294C30.6388 31.0466 30.6223 31.0614 30.6068 31.0777C30.3699 31.3448 30.1253 31.6065 29.8707 31.861C27.2724 34.4594 24.0008 36.1394 20.4495 36.7395C20.4387 36.7414 20.4278 36.7436 20.417 36.7456C20.4089 36.7468 20.4009 36.7473 20.393 36.7485C19.4446 36.9055 18.4767 36.9868 17.4963 36.9868C14.9164 36.9868 12.4313 36.4379 10.1098 35.3557C10.0598 35.3324 10.0123 35.3057 9.96653 35.2775C9.91453 35.2596 9.86343 35.2383 9.81302 35.2137C9.49451 35.0582 9.17637 34.8912 8.8679 34.7166C8.19158 34.3336 7.95354 33.4749 8.33648 32.7986C8.71957 32.1222 9.57827 31.8845 10.2544 32.2672Z" fill="#F39314"/>
<path d="M5.30183 11.296C5.03021 11.7002 4.58552 11.9184 4.13268 11.9184C3.86282 11.9184 3.58976 11.841 3.34899 11.6791C2.70396 11.2456 2.53248 10.3713 2.96598 9.72624C3.16388 9.43194 3.37298 9.14007 3.58854 8.85887C4.06065 8.24148 4.94379 8.12406 5.5611 8.59616C6.17834 9.06842 6.29591 9.95171 5.8235 10.5689C5.64296 10.805 5.46744 11.0497 5.30183 11.296Z" fill="#F39314"/>
<path d="M3.51461 14.9918C3.42415 15.2743 3.34107 15.5641 3.26736 15.8531C3.1051 16.4896 2.53271 16.9131 1.90466 16.9131C1.78976 16.9131 1.67264 16.8988 1.55614 16.8691C0.802983 16.6773 0.348011 15.911 0.539975 15.158C0.627542 14.8143 0.726532 14.4696 0.834354 14.1334C1.07117 13.3932 1.86339 12.9852 2.60345 13.2223C3.34374 13.4594 3.75165 14.2516 3.51461 14.9918Z" fill="#F39314"/>
<path d="M4.41123 28.9593C4.99938 28.451 5.88778 28.5155 6.39613 29.1034C6.59076 29.3285 6.79452 29.5503 7.0021 29.7626C7.54532 30.3185 7.53496 31.2094 6.97895 31.7527C6.7052 32.0202 6.35021 32.1535 5.99568 32.1535C5.62995 32.1535 5.26452 32.0117 4.98895 31.7296C4.74178 31.4766 4.49872 31.2125 4.26717 30.9443C3.75904 30.3563 3.82346 29.4676 4.41123 28.9593Z" fill="#F39314"/>
<path d="M1.36508 18.5728C2.14321 18.5494 2.79068 19.1606 2.81367 19.9373C2.82243 20.2348 2.84078 20.5358 2.86804 20.8317C2.93908 21.6055 2.36921 22.2906 1.59526 22.3617C1.55156 22.3657 1.50815 22.3676 1.46498 22.3676C0.746162 22.3676 0.1322 21.8191 0.0653441 21.089C0.0329058 20.7357 0.0109744 20.3767 0.000466108 20.0215C-0.0224538 19.2449 0.588161 18.596 1.36508 18.5728Z" fill="#F39314"/>
<path d="M1.99103 24.0297C2.7151 23.7462 3.53131 24.1033 3.81465 24.8271C3.92301 25.1039 4.04141 25.3815 4.16667 25.6516C4.49334 26.3567 4.18654 27.1931 3.48136 27.5199C3.2897 27.6087 3.08867 27.6506 2.89062 27.6506C2.35927 27.6506 1.85093 27.3483 1.61289 26.8346C1.46395 26.513 1.32278 26.1829 1.19386 25.8532C0.910449 25.1296 1.26742 24.3131 1.99103 24.0297Z" fill="#F39314"/>
<path d="M6.7836 7.39473C6.32101 6.77003 6.45236 5.88879 7.07706 5.42628C7.36147 5.21559 7.65638 5.01098 7.9535 4.81772C8.60508 4.39413 9.47672 4.5787 9.90032 5.23028C10.3238 5.88179 10.1393 6.75335 9.48791 7.1771C9.23823 7.33929 8.99076 7.51131 8.75174 7.68827C8.5 7.8746 8.20646 7.9646 7.91535 7.9646C7.48467 7.9646 7.05947 7.76746 6.7836 7.39473Z" fill="#F39314"/>
</svg>
