<svg width="47" height="47" viewBox="0 0 47 47" fill="none" xmlns="http://www.w3.org/2000/svg">
<path fill-rule="evenodd" clip-rule="evenodd" d="M29.9852 3.00516C30.51 2.06367 31.6969 1.72331 32.6409 2.24362L42.112 7.46385C42.5682 7.71534 42.9055 8.1383 43.0492 8.63913C43.1928 9.13997 43.1309 9.67738 42.8773 10.1325L39.7271 15.7831C37.5913 19.6143 34.1917 22.3042 30.3341 23.6253L41.9232 30.0128C42.3795 30.2645 42.7167 30.6875 42.8604 31.1882C43.004 31.689 42.9421 32.2265 42.6885 32.6814L37.4384 42.0993C36.9136 43.0408 35.7266 43.3812 34.7825 42.8609L21.523 35.5526C20.3699 34.9169 18.9225 35.3358 18.2903 36.4698L15.1403 42.1206C14.6155 43.062 13.4285 43.4023 12.4845 42.882L3.01302 37.6617C2.55673 37.41 2.21947 36.9872 2.07586 36.4863C1.93226 35.9855 1.99414 35.4482 2.24782 34.9931L5.39782 29.3423C7.53358 25.5112 10.9332 22.8212 14.7909 21.5001L3.20179 15.1125C2.74549 14.861 2.40823 14.4381 2.26463 13.9372C2.121 13.4364 2.18289 12.899 2.43659 12.4439L7.68659 3.02619C8.21142 2.0847 9.3984 1.74434 10.3424 2.26465L23.6024 9.57327C24.7556 10.2089 26.2028 9.79008 26.8352 8.65585L29.9852 3.00516ZM32.4572 6.61454L30.2562 10.5629C28.5687 13.5897 24.7433 14.6743 21.7118 13.0034L10.1586 6.63557L6.81573 12.6322L18.3522 18.9909C24.7362 22.5097 32.7744 20.2116 36.3061 13.876L38.498 9.94412L32.4572 6.61454ZM26.7729 26.1345C20.3887 22.6158 12.3506 24.9139 8.81885 31.2493L6.62697 35.1813L12.6683 38.5112L14.8693 34.5628C16.5566 31.536 20.3821 30.4515 23.4136 32.1223L34.9664 38.4899L38.3093 32.4933L26.7729 26.1345Z" fill="#00C996"/>
</svg>
