<svg width="85" height="69" viewBox="0 0 85 69" fill="none" xmlns="http://www.w3.org/2000/svg">
<path d="M42.5 34.5L10.795 21.835L12.75 68.5H4.25L6.29 20.0075L0 17.5L42.5 0.5L85 17.5L42.5 34.5ZM42.5 13.25C40.1625 13.25 38.25 14.185 38.25 15.375C38.25 16.565 40.1625 17.5 42.5 17.5C44.8375 17.5 46.75 16.565 46.75 15.375C46.75 14.185 44.8375 13.25 42.5 13.25ZM42.5 38.75L66.1725 29.2725C69.19 33.2675 71.2725 38.07 71.9525 43.2975C70.6775 43.1275 69.36 43 68 43C57.1625 43 47.685 48.8225 42.5 57.4925C37.315 48.8225 27.8375 43 17 43C15.64 43 14.3225 43.1275 13.0475 43.2975C13.7275 38.07 15.81 33.2675 18.8275 29.2725L42.5 38.75Z" fill="#666666"/>
</svg>
