<svg width="35" height="44" viewBox="0 0 35 44" fill="none" xmlns="http://www.w3.org/2000/svg">
<path d="M13.125 39.6088H21.875C21.875 42.0239 19.9062 44 17.5 44C15.0938 44 13.125 42.0239 13.125 39.6088ZM35 33.7904V37.4132H0V33.7904L4.375 29.6626V18.3552C4.375 11.944 7.7875 6.89413 13.125 5.22546V4.39113C13.125 1.27336 16.3844 -1.09791 19.6656 0.526846C21.0875 1.22944 21.875 2.78833 21.875 4.39113V5.24742C27.2125 6.89413 30.625 11.966 30.625 18.3772V29.6846L35 33.7904ZM32.8125 34.7126L28.4375 30.5848V18.5748C28.4375 13.1516 25.8344 9.00192 21.5906 7.37716C18.8344 6.21349 15.8156 6.27935 13.1906 7.44303C9.07812 9.1117 6.5625 13.2395 6.5625 18.5748V30.5848L2.1875 34.7126V35.2175H32.8125V34.7126Z" fill="white"/>
</svg>
