<svg width="20" height="22" viewBox="0 0 20 22" fill="none" xmlns="http://www.w3.org/2000/svg">
<g id="&#240;&#159;&#166;&#134; icon &#34;login&#34;">
<path id="Vector" d="M17.2319 9.69562H3.02899C1.90841 9.69562 1 10.6158 1 11.751V18.9447C1 20.0798 1.90841 21 3.02899 21H17.2319C18.3525 21 19.2609 20.0798 19.2609 18.9447V11.751C19.2609 10.6158 18.3525 9.69562 17.2319 9.69562Z" stroke="white" stroke-width="0.81" stroke-linecap="round" stroke-linejoin="round"/>
<path id="Vector_2" d="M4.47754 9.69586V5.83112C4.47754 4.54987 5.07304 3.32111 6.13303 2.41513C7.19302 1.50915 8.63068 1.00018 10.1297 1.00018C11.6288 1.00018 13.0664 1.50915 14.1264 2.41513C15.1864 3.32111 15.7819 4.54987 15.7819 5.83112V9.69586" stroke="white" stroke-width="0.81" stroke-linecap="round" stroke-linejoin="round"/>
<path id="Line 1" d="M10.1289 13.8575L10.1289 17.4289" stroke="white" stroke-linecap="round"/>
</g>
</svg>
