<svg width="53" height="44" viewBox="0 0 53 44" fill="none" xmlns="http://www.w3.org/2000/svg">
<path d="M28.9983 25.9047C34.663 25.9047 39.2553 30.5189 39.2553 36.2106V40.0753C39.2553 42.2097 37.5331 43.94 35.4089 43.94H4.6381C2.51381 43.94 0.791748 42.2097 0.791748 40.0753V36.2106C0.791748 30.5189 5.38394 25.9047 11.0487 25.9047H28.9983ZM44.3838 25.9052C48.6324 25.9052 52.0765 29.366 52.0765 33.6346V37.4994C52.0765 39.634 50.3543 41.3641 48.2301 41.3641H44.3838V36.2106C44.3838 31.9968 42.3703 28.2558 39.2573 25.9052H44.3838ZM20.0235 0.140015C26.3964 0.140015 31.5626 5.33088 31.5626 11.7341C31.5626 18.1374 26.3964 23.3283 20.0235 23.3283C13.6507 23.3283 8.48446 18.1374 8.48446 11.7341C8.48446 5.33088 13.6507 0.140015 20.0235 0.140015ZM41.8195 7.86943C46.0682 7.86943 49.5122 11.33 49.5122 15.5988C49.5122 19.8678 46.0682 23.3283 41.8195 23.3283C37.5708 23.3283 34.1268 19.8678 34.1268 15.5988C34.1268 11.33 37.5708 7.86943 41.8195 7.86943Z" fill="white"/>
</svg>
