<svg width="24" height="27" viewBox="0 0 24 27" fill="none" xmlns="http://www.w3.org/2000/svg">
<path fill-rule="evenodd" clip-rule="evenodd" d="M16.8997 7.19998C16.8997 4.55278 14.7022 2.39998 12 2.39998C9.29779 2.39998 7.10025 4.55278 7.10025 7.19998C7.10025 9.84718 9.29779 12 12 12C14.7022 12 16.8997 9.84718 16.8997 7.19998ZM21.5349 24H19.3496C18.6735 24 18.1247 23.4624 18.1247 22.8C18.1247 22.1376 18.6735 21.6 19.3496 21.6H19.8751C20.7228 21.6 21.3487 20.7636 21.0278 19.9944C19.5444 16.4376 16.0607 14.4 12 14.4C7.93933 14.4 4.45561 16.4376 2.97221 19.9944C2.65128 20.7636 3.27722 21.6 4.12488 21.6H4.65038C5.32654 21.6 5.87531 22.1376 5.87531 22.8C5.87531 23.4624 5.32654 24 4.65038 24H2.46509C0.933917 24 -0.271418 22.6284 0.0531901 21.1632C0.944944 17.1324 3.72922 14.1576 7.39669 12.8076C5.72342 11.4888 4.65038 9.46798 4.65038 7.19998C4.65038 2.93878 8.42808 -0.457228 12.8807 0.0503722C16.1072 0.417572 18.78 2.93632 19.2639 6.08392C19.6804 8.79712 18.5473 11.2752 16.6033 12.8076C20.2708 14.1576 23.0551 17.1324 23.9468 21.1632C24.2714 22.6284 23.0661 24 21.5349 24ZM15.6748 22.8C15.6748 23.4624 15.126 24 14.4499 24H13.4748C13.4748 25.2 13.6022 26.4 12.2499 26.4C11.5725 26.4 11.025 25.8624 11.025 25.2V24H9.55013C8.87396 24 8.32519 23.4624 8.32519 22.8C8.32519 22.1376 8.87396 21.6 9.55013 21.6H11.025V20.4C11.025 19.7376 11.5725 19.2 12.2499 19.2C12.9261 19.2 13.4748 19.7376 13.4748 20.4V21.6H14.4499C15.126 21.6 15.6748 22.1376 15.6748 22.8Z" fill="#AAAAAA"/>
</svg>
