<svg width="8" height="12" viewBox="0 0 8 12" fill="none" xmlns="http://www.w3.org/2000/svg">
<path fill-rule="evenodd" clip-rule="evenodd" d="M0.239665 7.20041C-0.0638683 7.48226 -0.0814441 7.95681 0.200408 8.26034L3.45041 11.7603C3.59232 11.9132 3.79145 12 4 12C4.20855 12 4.40769 11.9132 4.5496 11.7603L7.7996 8.26034C8.08145 7.9568 8.06387 7.48226 7.76034 7.2004C7.45681 6.91855 6.98226 6.93613 6.70041 7.23966L4.75 9.3401L4.75 0.75C4.75 0.335786 4.41422 -1.92952e-07 4 -1.74846e-07C3.58579 -1.5674e-07 3.25 0.335786 3.25 0.75L3.25 9.3401L1.2996 7.23966C1.01775 6.93613 0.543198 6.91855 0.239665 7.20041Z" fill="#00C996"/>
</svg>
