<svg width="50" height="49" viewBox="0 0 50 49" fill="none" xmlns="http://www.w3.org/2000/svg">
<path d="M28.4658 34.1476C24.9993 34.1476 21.7395 32.8021 19.288 30.3595C18.1677 29.2432 18.1677 27.4324 19.288 26.3161C20.4084 25.1997 22.2257 25.1997 23.3461 26.3161C24.7136 27.6787 26.532 28.4286 28.4658 28.4286C30.3996 28.4286 32.2179 27.6787 33.5855 26.3151L41.2214 18.7066C44.0446 15.8936 44.0446 11.3172 41.2214 8.50413C38.3982 5.69108 33.8053 5.69108 30.9821 8.50413L27.7131 11.7613C26.5927 12.8776 24.7754 12.8776 23.6551 11.7613C22.5347 10.645 22.5347 8.83419 23.6551 7.71785L26.925 4.4617C31.9859 -0.580999 40.2196 -0.57999 45.2805 4.4617C50.3414 9.5044 50.3414 17.7084 45.2805 22.7511L37.6445 30.3595C35.1921 32.8021 31.9333 34.1476 28.4658 34.1476Z" fill="white"/>
<path d="M13.6956 48.8649C10.2291 48.8649 6.96931 47.5194 4.51786 45.0768C-0.543064 40.0341 -0.543064 31.8301 4.51786 26.7874L12.1538 19.179C17.2148 14.1373 25.4484 14.1373 30.5093 19.179C31.6297 20.2953 31.6297 22.1061 30.5093 23.2224C29.3889 24.3388 27.5716 24.3388 26.4513 23.2224C23.628 20.4094 19.0351 20.4094 16.2119 23.2224L8.57592 30.8309C5.75271 33.6439 5.75271 38.2203 8.57592 41.0334C9.94347 42.396 11.7618 43.1469 13.6956 43.1469C15.6294 43.1469 17.4477 42.397 18.8153 41.0344L22.0842 37.7772C23.2046 36.6609 25.0219 36.6609 26.1423 37.7772C27.2627 38.8935 27.2627 40.7043 26.1423 41.8206L22.8734 45.0778C20.4219 47.5194 17.1631 48.8649 13.6956 48.8649Z" fill="white"/>
</svg>
